# xmcd CD database file
#
# Track frame offsets:
#	150
#	13394
#	31591
#	52349
#	64636
#	82855
#	103260
#	120541
#	137989
#	151578
#	170567
#	188919
#	206808
#	225278
#
# Disc length: 3229 seconds
#
# Revision: 0
# Processed by: cddbd v1.4PL0 Copyright (c) Steve Scherf et al.
# Submitted via: CDex 1.51
#
DISCID=b70c9b0e
DTITLE=Rama Dance - Extravagance
DYEAR=2003
DGENRE=New Age
TTITLE0=Papa
TTITLE1=Atðíirtîba
TTITLE2=Burvju Flauta
TTITLE3=Bramanîði
TTITLE4=Mîïâ Meita
TTITLE5=Tuvoðanâs
TTITLE6=Mantra
TTITLE7=Pçrïu zvejnieks
TTITLE8=Tirgus
TTITLE9=Ielejâ
TTITLE10=Pavasaris
TTITLE11=Ai Dieviòi
TTITLE12=Bengal
TTITLE13=Tieðâ Runa
EXTD=YEAR: 2003
EXTT0=
EXTT1=
EXTT2=
EXTT3=
EXTT4=
EXTT5=
EXTT6=
EXTT7=
EXTT8=
EXTT9=
EXTT10=
EXTT11=
EXTT12=
EXTT13=
PLAYORDER=
